<?xml version="1.0" encoding="utf-8"?>
<!-- Generator: Adobe Illustrator 28.0.0, SVG Export Plug-In . SVG Version: 6.00 Build 0)  -->
<svg version="1.1" id="Слой_1" xmlns="http://www.w3.org/2000/svg" xmlns:xlink="http://www.w3.org/1999/xlink" x="0px" y="0px"
	 viewBox="0 0 595.3 558.4" style="enable-background:new 0 0 595.3 558.4;" xml:space="preserve">
<style type="text/css">
	.st0{fill:#BE1622;}
</style>
<g>
	<g>
		<path class="st0" d="M306.8,279c0.1-0.1,0.2-0.2,0.3-0.2c0.1,0,0.1-0.1,0.2-0.1c-0.2,0.1,0,0,0,0c0.3-0.2,0.5-0.4,0.8-0.6
			c0.6-0.4,1.2-0.9,1.8-1.3c1.5-0.9,3-1.8,4.6-2.5c4-1.9,8.4-3.1,12.8-3.5c7.7-0.6,15.4,1.2,22.1,4.9c1.2,0.7,2.4,1.4,3.5,2.1
			c0.4,0.3,0.8,0.6,1.2,0.9c0.1,0.1,0.3,0.2,0.5,0.3c0.1,0.1,0.1,0.1,0.2,0.2c0.2,0.2-0.2-0.2,0,0c0.5,0.4,1.2,0.5,1.8,0
			c0.4-0.4,0.5-1.3,0-1.8c-4.3-3.4-9.3-6-14.6-7.5c-9-2.7-18.7-2.1-27.3,1.6c-3.5,1.5-6.7,3.5-9.6,5.8c-0.5,0.4-0.4,1.3,0,1.8
			C305.6,279.5,306.3,279.4,306.8,279L306.8,279z"/>
	</g>
</g>
<path d="M277.3,301l0.6-6.1l1.1-20.8l0.3-8.4v-4.6c3,0,5.7,0.1,8,0.1c1.7,0,4,0,7-0.1l12.5,22.7l1.7,3.3c0.2-3.3,0.4-7.9,0.7-13.8
	c0.2-5.9,0.3-10,0.3-12.2c2.4,0,4.3,0.1,5.7,0.1c0.7,0,2.6,0,5.7-0.1l-0.7,8.7l-1.3,24.2l-0.2,7c-2.5,0-4.9-0.1-7.1-0.1
	c-1.8,0-4.4,0-7.6,0.1c-1-1.9-1.8-3.3-2.2-4.1l-4.9-8.3c-1.6-2.7-3.1-5.3-4.5-7.8c-0.9-1.6-1.8-3.3-2.8-5.2l-0.6,13.8l-0.3,11.7
	c-2.4,0-4.3-0.1-5.5-0.1C282.3,301,280.3,301,277.3,301z"/>
<g>
	<g>
		<path class="st0" d="M141.5,278.6c5.8-5.1,12.8-9.7,20.6-10.6c6.7-0.8,13,1.4,18.1,5.6c5,4.2,8.8,9.5,12.8,14.6
			c4.2,5.5,8.6,10.9,14.1,15c6,4.5,13.2,6.9,20.7,7.4c9.8,0.6,19.8-1.7,29-4.9c15.3-5.4,29.7-13.4,43.3-22.2
			c2.2-1.4,4.3-2.8,6.4-4.2c1.3-0.9,0.1-3.1-1.3-2.2c-14.2,9.6-29.2,18.6-45.2,24.8c-9.6,3.7-19.7,6.5-30,6.4
			c-3.7-0.1-6.8-0.4-10.4-1.5c-0.7-0.2-1.5-0.4-2.2-0.7c-0.3-0.1-0.7-0.3-1-0.4c-0.2-0.1-0.3-0.1-0.5-0.2c-0.1,0-0.2-0.1-0.2-0.1
			c-0.2-0.1,0.2,0.1-0.1,0c-1.7-0.7-3.3-1.6-4.8-2.6c-11.5-7.3-17.3-20.2-27.1-29.4c-4.7-4.4-10.4-7.5-16.9-8
			c-8.5-0.6-16.5,3.2-23.1,8.2c-1.3,1-2.6,2.1-3.9,3.2C138.5,277.9,140.3,279.6,141.5,278.6L141.5,278.6z"/>
	</g>
</g>
<path class="st0" d="M267.3,292.6c-0.2-0.7-0.5-1.7-1.2-2.7c-0.3-0.4-1-1.2-2.3-2.6c0,0-0.8-1.1-3.1-2.3c-0.5-0.3-0.7-0.2-0.9,0.4
	c-0.6,1.2-1.1,2.4-1.5,3.7c-0.5,1.7-1.6,3.1-2.7,4.4c-0.1,0.1-0.2,0.2-0.2,0.3c-1,1.1-2,2.3-3,3.4c-1.2,1.4-2.9,1.8-4.7,2.1
	c-1.5,0.2-3.1,0.1-4.6-0.1c-0.8-0.1-1.5,0.1-2.3,0.1c-1-0.1-1.9-0.3-2.2-1.4c-0.1-0.2-0.2-0.3-0.5-0.3c-0.2,0-0.4,0-0.5,0.1
	c-1,0.1-1.8-0.2-2.4-1c-0.3-0.5-0.4-1-0.1-1.5c0.5-0.9,1.3-1.5,2.4-1.5c0.9,0,1.8,0.2,2.7,0c0.7-0.2,1.4-0.4,2.1-0.7
	c0.1-0.2,0.4-0.3,0.5-0.5c0.3-0.4,0.3-0.6-0.1-0.9c-0.5-0.4-1-0.6-1.6-0.9c-2.3-0.9-3.9-2.6-4.8-4.9c-0.5-1.2-1.1-1.5-2.3-1.2
	c-0.8,0.2-1.6,0.6-2.4,0.9c-1.1,0.4-2.1,0.8-3.2,1.2c-2.6,0.9-4.2,2.9-5.3,5.3c-0.2,0.5-0.4,1-0.5,1.4c-0.2,0.8-0.4,1.6-0.5,2.4
	c-0.1,0.5-0.3,0.9-0.7,1.2c-0.5,0.5-1,1.1-1.4,1.7c-0.2,0.5-0.7,0.8-1.1,1c-1.7,0.7-3.5,0.9-5.3,0.6c-0.6-0.1-1.1-0.3-1.3-1
	c-0.2-0.7,0.1-1.2,0.7-1.6c0.6-0.5,1.4-0.8,2.1-1.1c0.7-0.2,0.8-0.5,0.7-1.2c-0.1-0.5-0.2-1-0.3-1.6c-0.2-0.5-0.3-1.1-0.6-1.6
	c-0.1-0.3-0.3-0.4-0.6-0.2c-0.3,0.2-0.6,0.5-0.8,0.9c-0.3,0.5-0.6,1-0.7,1.5c-0.4,0.7-0.9,1.3-1.3,2c-0.3,0.5-0.7,0.8-1.3,0.8
	c-1.3,0.1-2.6,0.3-3.9,0c-0.6-0.1-0.8-0.6-0.6-1.1c0.1-0.8,0.7-1.3,1.4-1.6c0.6-0.2,1.1-0.4,1.6-0.7c0.2-0.1,0.4-0.2,0.3-0.5
	c-0.3-1.4-0.3-2.9-0.7-4.3c-0.4-1.3-1-2.4-1.8-3.5c-1.5-2.1-2.8-4.4-3.7-6.8c-0.2-0.6-0.6-1.1-0.9-1.6c-1-1.8-1.8-3.8-2.5-5.7
	c-0.1-0.3-0.3-0.5-0.6-0.7c-0.9-0.4-1.8-0.9-2.6-1.6c-0.4-0.4-0.7-0.8-0.9-1.4c-0.1-0.2-0.1-0.5,0-0.7c0.3-0.4,0.1-0.8,0-1.2
	c-0.4-1.3-0.5-2.7,0.2-4c0.1-0.2,0.1-0.4,0-0.6c-0.2-0.5-0.3-1.1-0.4-1.6c-0.2-0.9-0.1-1.8,0.4-2.7c0.3-0.6,1.1-0.9,2-0.6
	c0.5,0.1,0.8,0.1,1.1-0.3c0.3-0.5,0.9-0.8,1.5-1c2.2-0.7,4.4-0.7,6.5,0.2c0.7,0.3,1.4,0.6,2.3,0.5c0.9-0.1,2.1,0.9,2.3,1.8
	c0.6,2,1.1,4,1.6,6.1c0.3,1.3,0.9,2.5,1.5,3.7c0.7,1.4,3.4,2.4,4.9,1.9c0.4-0.1,0.7-0.4,1.1-0.6c1.4-1.1,2.9-2.1,4.3-3.3
	c1.1-1,2.3-1.5,3.8-1.7c0.8-0.1,1.6-0.3,2.3-0.7c1.1-0.5,2.2-0.6,3.3-0.9c0.5-0.1,1-0.2,1.5-0.4c2.2-0.9,4.5-1.1,6.7-0.5
	c3.3,0.9,6.6,2,9.7,3.6c2.6,1.3,4.7,3.2,6.1,5.8c0.8,1.5,1.6,3,2.3,4.6c0.9,2,1.8,4.1,3.1,5.9c0.1,0.2,0.2,0.3,1,1
	c4.9,5.1,6.5,6.3,7.7,9c0.2,0.4,0.5,1.1,0.7,2"/>
<path d="M257,301c1.1-15.6,1.7-27.7,1.7-36.1l0-3.8c3.4,0,5.7,0.1,6.8,0.1c0.5,0,2.6,0,6.3-0.1c-0.4,4.4-0.6,8.5-0.9,12.4
	c-0.3,5.5-0.5,10.5-0.6,15.3s-0.2,8.8-0.2,12.1l-6-0.1C263,301,260.6,301,257,301z"/>
<path class="st0" d="M270.3,290.8c1.5,0.5,2.5,1.5,2.5,2.6c0,1-0.9,1.8-1.6,2.4c-0.7,0.6-1.5,1-2.1,1.3c-0.3,0.2-0.6,0.3-0.8,0.4
	c-0.4,0.1-1,0.3-1.7,0.6c-2.2,0.7-3.4,1.1-4.8,1.3c-1.7,0.2-1.6,0.4-6.5-0.4c-0.8-0.1-1.6-0.3-2.3-0.8c-0.6-0.4-0.6-0.7-0.2-1.3
	c0.5-0.7,1.3-1.2,2.1-1.5c1.1-0.4,2.3-0.7,3.5-0.7c0.9,0,1.8-0.1,2.7,0c0.2,0,0.4-0.1,0.6-0.2c1-0.1,1.9-0.4,2.9-0.5
	c0,0,0.2-0.1,0.5-0.2C266.7,293.1,269.3,291.4,270.3,290.8z"/>
<path d="M326.4,301l0.6-6.1l1.1-20.8l0.3-8.4v-4.6c3,0,5.7,0.1,8,0.1c1.7,0,4,0,7-0.1l12.5,22.7l1.7,3.3c0.2-3.3,0.4-7.9,0.7-13.8
	c0.2-5.9,0.3-10,0.3-12.2c2.4,0,4.3,0.1,5.7,0.1c0.7,0,2.6,0,5.7-0.1l-0.7,8.7l-1.3,24.2l-0.2,7c-2.5,0-4.9-0.1-7.1-0.1
	c-1.8,0-4.4,0-7.6,0.1c-1-1.9-1.8-3.3-2.2-4.1l-4.9-8.3c-1.6-2.7-3.1-5.3-4.5-7.8c-0.9-1.6-1.8-3.3-2.8-5.2l-0.6,13.8l-0.3,11.7
	c-2.4,0-4.3-0.1-5.5-0.1C331.4,301,329.4,301,326.4,301z"/>
<g>
	<g>
		<path class="st0" d="M354.8,279.2c6.8,6,15.3,10.3,24.2,11.9c11.6,2.1,23.6-0.1,33.8-6c2.9-1.6,5.6-3.6,8.1-5.7
			c0.5-0.4,0.5-1.3,0-1.8c-0.5-0.5-1.3-0.4-1.8,0c-0.3,0.3-0.6,0.5-1,0.8c-0.2,0.2-0.4,0.3-0.6,0.5c-0.1,0.1-0.2,0.2-0.3,0.2
			c-0.2,0.2,0.2-0.2,0,0c-0.1,0.1-0.2,0.1-0.3,0.2c-1.3,1-2.7,1.9-4.1,2.8c-4,2.5-8.3,4.4-12.8,5.6c-11.4,3.1-23.6,1.7-34.1-3.8
			c-2.1-1.1-4.1-2.3-6-3.7c-0.4-0.3-0.8-0.6-1.1-0.8c0.2,0.2,0,0-0.1,0c-0.1-0.1-0.2-0.2-0.3-0.2c-0.2-0.1-0.3-0.2-0.5-0.4
			c-0.5-0.4-1-0.8-1.5-1.3C355.4,276.3,353.6,278.1,354.8,279.2L354.8,279.2z"/>
	</g>
</g>
<path d="M221.5,301c0.5-4.6,0.8-8.3,1.1-11.2c0.4-5.3,0.7-10.6,0.9-15.8c0.2-5.2,0.3-9.5,0.3-12.8c2.6,0,5,0.1,7,0.1
	c1.4,0,3.4,0,6-0.1l-0.7,10.6l-0.9,16.5l-0.1,4.1c3.3,0.1,5.5,0.1,6.5,0.1c5.1,0,9-0.1,11.6-0.2l-0.6,8.8c-5.1,0-10-0.1-14.6-0.1
	C231.7,301,226.2,301,221.5,301z"/>
<path d="M383.9,301c0.2-1.6,0.4-4.3,0.7-8c0.3-3.8,0.4-6.4,0.4-8l-13.4-23.8c2.9,0,5.4,0.1,7.3,0.1c1.8,0,4,0,6.6-0.1
	c0.8,1.9,1.8,4.3,3.2,7c1.3,2.7,2.4,5.1,3.3,7.2c2.2-4,4-7,5.4-9.2c1.4-2.2,2.3-3.9,2.9-4.9c2.5,0,4.9,0.1,7.1,0.1
	c1.2,0,3.4,0,6.6-0.1l-12.8,18.9c-2.6,3.8-3.8,5.8-3.8,5.9l0,0.3v0.3l0,0.3l-0.2,4.4c-0.1,2.9-0.2,6.2-0.3,9.7
	c-2.7,0-4.9-0.1-6.4-0.1C388.8,301,386.7,301,383.9,301z"/>
</svg>
